<svg xmlns:dc="http://purl.org/dc/elements/1.1/" xmlns:cc="http://creativecommons.org/ns#" xmlns:rdf="http://www.w3.org/1999/02/22-rdf-syntax-ns#" xmlns:svg="http://www.w3.org/2000/svg" xmlns="http://www.w3.org/2000/svg" xmlns:xlink="http://www.w3.org/1999/xlink" id="svg223009" viewBox="0 0 1024 768" height="768px" width="1024px" version="1.1">
  <metadata id="metadata223015">
    <rdf:rdf>
      <cc:work rdf:about="">
        <dc:format>image/svg+xml</dc:format>
        <dc:type rdf:resource="http://purl.org/dc/dcmitype/StillImage"></dc:type>
      </cc:work>
    </rdf:rdf>
  </metadata>
  <defs id="defs223013"></defs>
  <linearGradient spreadMethod="pad" y2="30%" x2="-10%" y1="120%" x1="30%" id="3d_gradient2-logo-a37ebff3-7b41-4c4e-a1d2-8947cbc9da78">
    <stop id="stop222990" stop-opacity="1" stop-color="#ffffff" offset="0%"></stop>
    <stop id="stop222992" stop-opacity="1" stop-color="#000000" offset="100%"></stop>
  </linearGradient>
  <linearGradient gradientTransform="rotate(-30)" spreadMethod="pad" y2="30%" x2="-10%" y1="120%" x1="30%" id="3d_gradient3-logo-a37ebff3-7b41-4c4e-a1d2-8947cbc9da78">
    <stop id="stop222995" stop-opacity="1" stop-color="#ffffff" offset="0%"></stop>
    <stop id="stop222997" stop-opacity="1" stop-color="#cccccc" offset="50%"></stop>
    <stop id="stop222999" stop-opacity="1" stop-color="#000000" offset="100%"></stop>
  </linearGradient>
  <g id="logo-group">
    <image xlink:href="" id="container" x="272" y="144" width="480" height="480" style="display: none;" transform="translate(0 0)"></image>
    <g id="logo-center" transform="translate(0 0)">
      <image xlink:href="" id="icon_container" x="0" y="0" style="display: none;"></image>
      <g id="slogan" style="font-style:normal;font-weight:400;font-size:32px;line-height:1;font-family:'Fira Sans Condensed';font-variant-ligatures:none;text-align:center;text-anchor:middle" transform="translate(0 0)"></g>
      <g id="title" style="font-style:normal;font-weight:300;font-size:72px;line-height:1;font-family:'Montserrat Light Alt1';font-variant-ligatures:none;text-align:center;text-anchor:middle" transform="translate(0 0)">
        <path id="path223018" style="font-style:normal;font-weight:300;font-size:72px;line-height:1;font-family:'Montserrat Light Alt1';font-variant-ligatures:none;text-align:center;text-anchor:middle" d="m 410.74494,-50.4 v 3.312 h 32.256 V -50.4 Z m 0,50.4 h 3.672 v -22.248 h 28.584 v -3.312 h -32.256 z" stroke-width="0" stroke-linejoin="miter" stroke-miterlimit="2" fill="#000000" stroke="#000000" transform="translate(0 334) translate(302.25950000000006 -0.3999999999999986) scale(2) translate(-410.74494 50.4)"></path>
        <path id="path223020" style="font-style:normal;font-weight:300;font-size:72px;line-height:1;font-family:'Montserrat Light Alt1';font-variant-ligatures:none;text-align:center;text-anchor:middle" d="M 456.16681,-50.4 V 0 h 3.672 v -50.4 z" stroke-width="0" stroke-linejoin="miter" stroke-miterlimit="2" fill="#0a2326" stroke="#0a2326" transform="translate(0 334) translate(393.10324 -0.3999999999999986) scale(2) translate(-456.16681 50.4)"></path>
        <path id="path223022" style="font-style:normal;font-weight:300;font-size:72px;line-height:1;font-family:'Montserrat Light Alt1';font-variant-ligatures:none;text-align:center;text-anchor:middle" d="m 518.44119,-50.4 h -3.672 v 43.776 l -34.272,-43.776 h -3.096 V 0 h 3.672 V -43.776 L 515.41719,0 h 3.024 z" stroke-width="0" stroke-linejoin="miter" stroke-miterlimit="2" fill="#14464c" stroke="#14464c" transform="translate(0 334) translate(435.57199999999995 -0.3999999999999986) scale(2) translate(-477.40119 50.4)"></path>
        <path id="path223024" style="font-style:normal;font-weight:300;font-size:72px;line-height:1;font-family:'Montserrat Light Alt1';font-variant-ligatures:none;text-align:center;text-anchor:middle" d="m 554.47381,-50.4 h -3.672 L 527.61781,0 h 3.96 l 21.024,-46.368 21.096,46.368 h 3.96 z" stroke-width="0" stroke-linejoin="miter" stroke-miterlimit="2" fill="#1e6871" stroke="#1e6871" transform="translate(0 334) translate(536.0052399999998 -0.3999999999999986) scale(2) translate(-527.61781 50.4)"></path>
        <path id="path223026" style="font-style:normal;font-weight:300;font-size:72px;line-height:1;font-family:'Montserrat Light Alt1';font-variant-ligatures:none;text-align:center;text-anchor:middle" d="m 616.16544,0 h 4.32 l -19.368,-26.064 18,-24.336 h -4.104 l -16.056,21.672 -16.056,-21.672 h -4.32 l 18,24.408 L 577.21344,0 h 4.32 l 17.28,-23.328 z" stroke-width="0" stroke-linejoin="miter" stroke-miterlimit="2" fill="#288b97" stroke="#288b97" transform="translate(0 334) translate(635.1965 -0.3999999999999986) scale(2) translate(-577.21344 50.4)"></path>
      </g>
      <image xlink:href="" id="icon" x="0" y="0" style="display: none;"></image>
    </g>
  </g>
</svg>